<svg xmlns="http://www.w3.org/2000/svg" viewBox="0 0 24 24" fill="none" stroke="currentColor" stroke-width="1.5" stroke-linecap="round" stroke-linejoin="round">
    <!-- 文件轮廓 -->
    <path d="M14.5 2H6a2 2 0 0 0-2 2v16a2 2 0 0 0 2 2h12a2 2 0 0 0 2-2V7.5L14.5 2z"></path>
    <!-- 折角效果 -->
    <polyline points="14,2 14,8 20,8"></polyline>
    <!-- Markdown M 标志 - 整体左移使其居中 -->
    <g transform="translate(5.7, 12)" fill="currentColor" stroke="none">
        <!-- M 字母 -->
        <path d="M0 7V0h1.8l1.4 2.1L4.6 0h1.8v7H4.8V3l-1.6 2.4L1.6 3v4H0"/>
        <!-- 向下箭头 -->
        <path d="M10 7l-2.4-3h1.7V0h1.8v4h1.7L10 7"/>
    </g>
</svg>
