<svg xmlns="http://www.w3.org/2000/svg" viewBox="0 0 24 24" fill="none">
    <!-- 文件主体 -->
    <path d="M14 2H6C4.9 2 4 2.9 4 4V20C4 21.1 4.9 22 6 22H18C19.1 22 20 21.1 20 20V8L14 2Z"
          fill="#FFFFFF"
          stroke="#E5E7EB"
          stroke-width="1"/>

    <!-- 右上角折角 -->
    <path d="M14 2V8H20L14 2Z"
          fill="#F3F4F6"/>

    <!-- Markdown M 标志 - 居中放置 -->
    <g transform="translate(0.5, 2)" fill="#2b2b2b">
        <path d="M4.89 15.19V8.81H6.81L8.73 11.16L10.65 8.81H12.58V15.19H10.65V11.53L8.73 13.88L6.81 11.53V15.19H4.89M16.9 15.19L14 12.09H15.94V8.81H17.86V12.09H19.79L16.9 15.19"/>
    </g>
</svg>
